<svg id="instagram" xmlns="http://www.w3.org/2000/svg" viewBox="0 0 21.161 21.161">
  <defs>
    <style>
      .cls-1 {
        fill: #454545;
      }
    </style>
  </defs>
  <g id="Group_2" data-name="Group 2">
    <g id="Group_1" data-name="Group 1">
      <path id="Path_3" data-name="Path 3" class="cls-1" d="M15.014,0H6.147A6.154,6.154,0,0,0,0,6.147v8.867a6.154,6.154,0,0,0,6.147,6.147h8.867a6.082,6.082,0,0,0,2.78-.663,6.2,6.2,0,0,0,2.12-1.772.827.827,0,0,0-1.317-1,4.463,4.463,0,0,1-3.583,1.781H6.147a4.5,4.5,0,0,1-4.494-4.494V6.147A4.5,4.5,0,0,1,6.147,1.653h8.867a4.5,4.5,0,0,1,4.494,4.494v8.029a.827.827,0,1,0,1.653,0V6.147A6.154,6.154,0,0,0,15.014,0Z"/>
    </g>
  </g>
  <g id="Group_4" data-name="Group 4" transform="translate(4.877 4.877)">
    <g id="Group_3" data-name="Group 3">
      <path id="Path_4" data-name="Path 4" class="cls-1" d="M123.7,118a5.7,5.7,0,1,0,5.7,5.7A5.71,5.71,0,0,0,123.7,118Zm0,9.754a4.05,4.05,0,1,1,4.05-4.05A4.055,4.055,0,0,1,123.7,127.754Z" transform="translate(-118 -118)"/>
    </g>
  </g>
  <g id="Group_6" data-name="Group 6" transform="translate(15.54 3.968)">
    <g id="Group_5" data-name="Group 5">
      <circle id="Ellipse_4" data-name="Ellipse 4" class="cls-1" cx="0.827" cy="0.827" r="0.827"/>
    </g>
  </g>
</svg>
