<?xml version="1.0" encoding="utf-8"?>
<!-- Generator: Adobe Illustrator 23.0.3, SVG Export Plug-In . SVG Version: 6.00 Build 0)  -->
<svg version="1.1" id="Layer_1" xmlns="http://www.w3.org/2000/svg" xmlns:xlink="http://www.w3.org/1999/xlink" x="0px" y="0px"
	 viewBox="0 0 38.4 38.4" style="enable-background:new 0 0 38.4 38.4;" xml:space="preserve">
<style type="text/css">
	.st0{fill:#6D6E71;}
</style>
<path id="_003-hotel" class="st0" d="M37.3,36.2h-3.5v-35c0-0.6-0.5-1.1-1.1-1.1c0,0,0,0,0,0H12.5c-0.6,0-1.1,0.5-1.1,1.1
	c0,0,0,0,0,0v13.6c-2.5-1.9-6-1.4-7.9,1.1c-0.7,1-1.1,2.2-1.1,3.4c0,0.4,0,0.8,0.1,1.1C0.9,21.8,0,23.8,0,26c0,3.9,2.9,7.3,6.8,7.8
	v2.4H1.1c-0.6,0-1.1,0.5-1.1,1.2c0,0.6,0.5,1.1,1.1,1.1h36.2c0.6,0,1.1-0.5,1.1-1.2C38.4,36.7,37.9,36.2,37.3,36.2z M20.3,20.3v-4.5
	h4.5v4.5H20.3z M13.5,20.3c0.1-0.4,0.1-0.7,0.1-1.1v-3.4h4.5v4.5L13.5,20.3z M24.8,9.1v4.5h-4.5V9.1H24.8z M20.3,6.8V2.3h4.5v4.6
	L20.3,6.8z M31.6,13.6h-4.5V9.1h4.5V13.6z M18.1,13.6h-4.5V9.1h4.5V13.6z M27.1,15.8h4.5v4.5h-4.5V15.8z M31.6,6.8h-4.5V2.3h4.5V6.8
	z M18.1,2.3v4.6h-4.5V2.3H18.1z M2.3,26c0-1.7,0.8-3.3,2.2-4.4c0.4-0.3,0.5-0.8,0.4-1.3c-0.1-0.4-0.2-0.7-0.2-1.1
	c0-1.9,1.5-3.4,3.3-3.4c1.9,0,3.4,1.5,3.4,3.3c0,0,0,0.1,0,0.1c0,0.4-0.1,0.8-0.2,1.1c-0.2,0.5,0,1,0.4,1.3c2.4,1.9,2.8,5.4,0.9,7.9
	c-0.8,1-2,1.7-3.3,2v-2.8l1.9-1.9c0.4-0.4,0.4-1.2,0-1.6c-0.4-0.4-1.2-0.4-1.6,0l0,0l-0.3,0.3v-6.3c0-0.6-0.5-1.1-1.1-1.2
	c-0.6,0-1.1,0.5-1.2,1.1c0,0,0,0,0,0.1v4l-0.3-0.3c-0.4-0.4-1.2-0.4-1.6,0s-0.4,1.2,0,1.6l0,0l1.9,1.9v5.1C4.2,31,2.3,28.7,2.3,26z
	 M9.1,33.8c0.8-0.1,1.5-0.3,2.3-0.7v3.1H9.1V33.8z M24.8,36.2h-4.5v-6.8h4.5V36.2z M27.1,36.2v-6.8h1.1c0.6,0,1.1-0.5,1.2-1.1
	s-0.5-1.1-1.1-1.2c0,0,0,0-0.1,0H17c-0.6,0-1.1,0.5-1.1,1.2c0,0.6,0.5,1.1,1.1,1.1h1.1v6.8h-4.5v-4.7C15,30,15.8,28,15.8,26
	c0-1.2-0.3-2.3-0.8-3.4h16.5v13.6L27.1,36.2z"/>
</svg>
