<?xml version="1.0" encoding="utf-8"?>
<!-- Generator: Adobe Illustrator 23.0.3, SVG Export Plug-In . SVG Version: 6.00 Build 0)  -->
<svg version="1.1" id="Group_73" xmlns="http://www.w3.org/2000/svg" xmlns:xlink="http://www.w3.org/1999/xlink" x="0px" y="0px"
	 viewBox="0 0 39.9 39.9" style="enable-background:new 0 0 39.9 39.9;" xml:space="preserve">
<style type="text/css">
	.st0{fill:#6D6E71;}
</style>
<g id="Group_72">
	<circle id="Ellipse_6" class="st0" cx="30.1" cy="16.4" r="1.6"/>
	<path id="Path_41" class="st0" d="M33.6,3.1h-2V1.6C31.6,0.7,31,0,30.1,0s-1.6,0.7-1.6,1.5c0,0,0,0.1,0,0.1v1.6h-7.1V1.6
		c0-0.9-0.7-1.6-1.5-1.6s-1.6,0.7-1.6,1.5c0,0,0,0.1,0,0.1v1.6h-7V1.6c0-0.9-0.7-1.6-1.5-1.6c-0.9,0-1.6,0.7-1.6,1.5
		c0,0,0,0.1,0,0.1v1.6H6.2C2.8,3.1,0,5.9,0,9.3v24.3c0,3.4,2.8,6.2,6.2,6.2h11.9c0.9,0,1.6-0.7,1.6-1.5c0-0.9-0.7-1.6-1.5-1.6
		c0,0-0.1,0-0.1,0H6.2c-1.7,0-3.1-1.4-3.1-3.1V9.3c0-1.7,1.4-3.1,3.1-3.1h1.9v1.6c0,0.9,0.7,1.6,1.5,1.6c0.9,0,1.6-0.7,1.6-1.5
		c0,0,0-0.1,0-0.1V6.2h7v1.6c0,0.9,0.7,1.6,1.5,1.6c0.9,0,1.6-0.7,1.6-1.5c0,0,0-0.1,0-0.1V6.2h7.1v1.6c0,0.9,0.7,1.6,1.5,1.6
		c0.9,0,1.6-0.7,1.6-1.5c0,0,0-0.1,0-0.1V6.2h2c1.7,0,3.1,1.4,3.1,3.1v8.9c0,0.9,0.7,1.6,1.5,1.6c0.9,0,1.6-0.7,1.6-1.5
		c0,0,0-0.1,0-0.1V9.3C39.9,5.9,37.1,3.1,33.6,3.1z"/>
	<path id="Path_42" class="st0" d="M30.5,21c-5.2,0-9.4,4.2-9.4,9.4s4.2,9.4,9.4,9.4c5.2,0,9.4-4.2,9.4-9.4
		C39.9,25.3,35.7,21,30.5,21z M30.5,36.8c-3.5,0-6.3-2.8-6.3-6.3c0-3.5,2.8-6.3,6.3-6.3c3.5,0,6.3,2.8,6.3,6.3c0,0,0,0,0,0
		C36.8,33.9,33.9,36.8,30.5,36.8z"/>
	<path id="Path_43" class="st0" d="M32.7,28.9H32v-1.6c0-0.9-0.7-1.6-1.5-1.6c-0.9,0-1.6,0.7-1.6,1.5c0,0,0,0.1,0,0.1v3.2
		c0,0.9,0.7,1.6,1.6,1.6h0h2.3c0.9,0,1.6-0.7,1.6-1.5C34.3,29.6,33.7,28.9,32.7,28.9C32.8,28.9,32.7,28.9,32.7,28.9L32.7,28.9z"/>
	<circle id="Ellipse_7" class="st0" cx="23.3" cy="16.4" r="1.6"/>
	<circle id="Ellipse_8" class="st0" cx="16.5" cy="23.1" r="1.6"/>
	<circle id="Ellipse_9" class="st0" cx="9.7" cy="16.4" r="1.6"/>
	<circle id="Ellipse_10" class="st0" cx="9.7" cy="23.1" r="1.6"/>
	<circle id="Ellipse_11" class="st0" cx="9.7" cy="29.9" r="1.6"/>
	<circle id="Ellipse_12" class="st0" cx="16.5" cy="29.9" r="1.6"/>
	<circle id="Ellipse_13" class="st0" cx="16.5" cy="16.4" r="1.6"/>
</g>
</svg>
